<?xml version="1.0" encoding="utf-8"?>
<!-- Generator: Adobe Illustrator 23.0.1, SVG Export Plug-In . SVG Version: 6.00 Build 0)  -->
<svg version="1.1" id="Layer_1" xmlns="http://www.w3.org/2000/svg" xmlns:xlink="http://www.w3.org/1999/xlink" x="0px" y="0px"
	 viewBox="0 0 100 25" style="enable-background:new 0 0 100 25;" xml:space="preserve">
<style type="text/css">
	.st0{fill-rule:evenodd;clip-rule:evenodd;fill:#FFA96B;}
	.st1{fill-rule:evenodd;clip-rule:evenodd;fill:#FFD4B5;}
	.st2{fill:#FFA96B;}
	.st3{font-family:'Bakery';}
	.st4{font-size:22.2396px;}
	.st5{fill:#29D8EF;}
</style>
<g>
	<g>
		<g>
			<path class="st0" d="M9.2,6.5C7.7,6,6.1,6.2,4.8,6.9C5.2,7.5,5.2,8.4,4.6,9C4,9.6,3.1,9.7,2.4,9.2C2,10,1.7,11,1.7,11.9
				c0,1.5,0.6,2.9,1.7,4c1,1,2.3,1.6,3.6,1.7c1.6,0.1,3.2-0.4,4.5-1.7c1.1-1.1,1.7-2.6,1.7-4c0-0.1,0-0.1,0-0.2
				c0-1.4-0.6-2.8-1.7-3.8C10.8,7.2,10,6.8,9.2,6.5L9.2,6.5z M5.3,11.4c0.4,0.4,0.4,1,0,1.3c-0.4,0.4-1,0.4-1.3,0
				c-0.4-0.4-0.4-1,0-1.3C4.3,11,4.9,11,5.3,11.4z M9.3,12.3c0.3-0.3,0.9-0.3,1.2,0s0.3,0.9,0,1.2c-0.3,0.3-0.9,0.3-1.2,0
				C9,13.2,9,12.7,9.3,12.3L9.3,12.3z"/>
		</g>
		<g>
			<path class="st0" d="M13.1,11.9c0,1.5-0.6,2.9-1.7,4c-1.2,1.2-2.9,1.8-4.5,1.7c0.3,2.6,2.6,4.6,5.3,4.6c0.4,0,0.8-0.1,1.2-0.1
				c0-0.1,0-0.2,0-0.3c0-1.2,1-2.1,2.1-2.1c0.2,0,0.3,0,0.4,0c0-0.2-0.1-0.3-0.1-0.5c0-1,0.7-1.8,1.6-2c0-0.1,0-0.2,0-0.2
				c0-1-0.3-1.9-0.7-2.7c-0.8-1.3-2.1-2.3-3.7-2.6C13.1,11.8,13.1,11.9,13.1,11.9L13.1,11.9z M15.1,16.6c-0.3,0.3-0.9,0.3-1.2,0
				c-0.3-0.3-0.3-0.9,0-1.2c0.3-0.3,0.9-0.3,1.2,0S15.4,16.3,15.1,16.6z"/>
		</g>
		<g>
			<path class="st1" d="M15.1,15.4c-0.3-0.3-0.9-0.3-1.2,0c-0.3,0.3-0.3,0.9,0,1.2c0.3,0.3,0.9,0.3,1.2,0
				C15.4,16.3,15.4,15.7,15.1,15.4z"/>
		</g>
		<g>
			<path class="st0" d="M17.5,9.5c-0.3-0.3-0.9-0.3-1.2,0c-0.3,0.3-0.3,0.9,0,1.2c0.3,0.3,0.9,0.3,1.2,0
				C17.8,10.4,17.8,9.9,17.5,9.5z"/>
		</g>
		<g>
			<path class="st1" d="M10.6,12.3c-0.3-0.3-0.9-0.3-1.2,0c-0.3,0.3-0.3,0.9,0,1.2c0.3,0.3,0.9,0.3,1.2,0
				C10.9,13.2,10.9,12.7,10.6,12.3z"/>
		</g>
		<g>
			<path class="st1" d="M5.3,11.4c-0.4-0.4-1-0.4-1.3,0c-0.4,0.4-0.4,1,0,1.3c0.4,0.4,1,0.4,1.3,0C5.6,12.3,5.6,11.7,5.3,11.4z"/>
		</g>
		<g>
			<path class="st1" d="M4.8,6.9c-0.5,0.3-1,0.6-1.4,1C3,8.3,2.7,8.7,2.4,9.2C3.1,9.7,4,9.6,4.6,9C5.2,8.4,5.2,7.5,4.8,6.9z"/>
		</g>
		<g>
			<path class="st0" d="M14.1,3.6c-0.9,0-1.9,0.2-2.7,0.7c0,0.3,0.1,0.6,0.3,0.8c0.5,0.6,1.4,0.7,2,0.2C14.3,4.8,14.4,4.1,14.1,3.6z
				"/>
		</g>
		<g>
			<path class="st1" d="M14.1,3.6c0.3,0.6,0.1,1.3-0.4,1.7c-0.6,0.5-1.5,0.4-2-0.2c-0.2-0.2-0.3-0.5-0.3-0.8c-0.5,0.3-0.9,0.6-1.3,1
				C9.8,5.6,9.4,6,9.2,6.5c0.8,0.3,1.6,0.7,2.3,1.4c1.1,1.1,1.6,2.4,1.7,3.8c1.6,0.3,2.9,1.2,3.7,2.6c0.5-0.3,1-0.6,1.4-1
				c1.1-1.1,1.7-2.6,1.7-4s-0.6-2.9-1.7-4C17.1,4.1,15.6,3.5,14.1,3.6L14.1,3.6z M16.3,9.5c0.3-0.3,0.9-0.3,1.2,0
				c0.3,0.3,0.3,0.9,0,1.2c-0.3,0.3-0.9,0.3-1.2,0C16,10.4,16,9.9,16.3,9.5z"/>
		</g>
		<g>
			<path d="M18,18.8L18,18.8c-0.1,0.1-0.1,0.4,0,0.5c0.1,0.1,0.2,0.1,0.3,0.1c0.1,0,0.2,0,0.3-0.1c0.1-0.1,0.1-0.4,0-0.5
				C18.4,18.7,18.1,18.7,18,18.8L18,18.8z"/>
			<path d="M8.7,12.9c0,0.3,0.1,0.7,0.4,0.9c0.2,0.2,0.6,0.4,0.9,0.4c0.3,0,0.6-0.1,0.9-0.4c0.2-0.2,0.4-0.6,0.4-0.9
				c0-0.3-0.1-0.7-0.4-0.9c-0.5-0.5-1.3-0.5-1.8,0C8.8,12.3,8.7,12.6,8.7,12.9z M9.6,12.6c0.1-0.1,0.2-0.1,0.4-0.1
				c0.1,0,0.3,0,0.4,0.1c0.1,0.1,0.1,0.2,0.1,0.4c0,0.1-0.1,0.3-0.1,0.4c-0.2,0.2-0.5,0.2-0.7,0c-0.1-0.1-0.1-0.2-0.1-0.4
				C9.4,12.8,9.5,12.7,9.6,12.6z"/>
			<path d="M7.5,10.7L7.5,10.7c-0.2,0-0.4,0.2-0.4,0.4c0,0.2,0.2,0.4,0.4,0.4s0.4-0.2,0.4-0.4C7.8,10.9,7.7,10.7,7.5,10.7L7.5,10.7z
				"/>
			<path d="M5.9,14.8c0.2,0,0.4-0.2,0.4-0.4c0-0.2-0.2-0.4-0.4-0.4h0c-0.2,0-0.4,0.2-0.4,0.4C5.6,14.7,5.7,14.8,5.9,14.8z"/>
			<path d="M5.5,11.1c-0.5-0.5-1.4-0.5-1.9,0c-0.5,0.5-0.5,1.4,0,1.9c0.3,0.3,0.6,0.4,0.9,0.4c0.3,0,0.7-0.1,0.9-0.4
				C6.1,12.5,6.1,11.6,5.5,11.1C5.5,11.1,5.5,11.1,5.5,11.1z M5,12.4c-0.2,0.2-0.6,0.2-0.8,0c-0.2-0.2-0.2-0.6,0-0.8
				c0.1-0.1,0.3-0.2,0.4-0.2s0.3,0.1,0.4,0.2C5.2,11.9,5.2,12.2,5,12.4L5,12.4z"/>
			<path d="M7.3,8.2L7.3,8.2C7,8.2,6.9,8.3,6.9,8.5s0.2,0.4,0.4,0.4c0.2,0,0.4-0.2,0.4-0.4S7.5,8.2,7.3,8.2z"/>
			<path d="M10.5,10c0-0.2-0.2-0.4-0.4-0.4h0c-0.2,0-0.4,0.2-0.4,0.4s0.2,0.4,0.4,0.4C10.4,10.4,10.5,10.2,10.5,10L10.5,10z"/>
			<path d="M8.2,15.5c0.2,0,0.4-0.2,0.4-0.4c0-0.2-0.2-0.4-0.4-0.4h0c-0.2,0-0.4,0.2-0.4,0.4C7.8,15.3,8,15.5,8.2,15.5z"/>
			<path d="M15.5,21.4L15.5,21.4c-0.1,0.1-0.1,0.4,0,0.5c0.1,0.1,0.2,0.1,0.3,0.1c0.1,0,0.2,0,0.3-0.1c0.1-0.1,0.1-0.4,0-0.5
				C15.9,21.3,15.7,21.3,15.5,21.4L15.5,21.4z"/>
			<path d="M17.4,21L17.4,21c-0.1,0.1-0.1,0.4,0,0.5c0.1,0.1,0.2,0.1,0.3,0.1c0.1,0,0.2,0,0.3-0.1c0.1-0.1,0.1-0.4,0-0.5
				C17.8,20.8,17.6,20.8,17.4,21L17.4,21z"/>
			<path d="M12.5,17.9L12.5,17.9c-0.2,0.2-0.1,0.4,0,0.5c0.1,0.1,0.2,0.1,0.3,0.1c0.1,0,0.2,0,0.3-0.1c0.1-0.1,0.1-0.4,0-0.5
				C12.9,17.8,12.7,17.8,12.5,17.9L12.5,17.9z"/>
			<path d="M16.9,11.3c0.3,0,0.6-0.1,0.9-0.4c0.5-0.5,0.5-1.3,0-1.7c0,0,0,0,0,0c-0.5-0.5-1.3-0.5-1.7,0c-0.5,0.5-0.5,1.3,0,1.7
				C16.2,11.2,16.6,11.3,16.9,11.3z M16.5,9.8c0.1-0.1,0.2-0.1,0.3-0.1s0.2,0,0.3,0.1c0.2,0.2,0.2,0.5,0,0.7c-0.2,0.2-0.5,0.2-0.7,0
				C16.4,10.3,16.4,10,16.5,9.8L16.5,9.8z"/>
			<path d="M16.5,7.3c0.2,0,0.4-0.2,0.4-0.4c0-0.2-0.2-0.4-0.4-0.4h0c-0.2,0-0.4,0.2-0.4,0.4S16.3,7.3,16.5,7.3z"/>
			<path d="M17.6,17.6c0.2,0,0.3-0.2,0.3-0.3c0-0.1,0-0.2,0-0.3c0-0.9-0.2-1.7-0.6-2.5c0.4-0.3,0.8-0.6,1.1-0.9
				c1.1-1.1,1.8-2.7,1.8-4.3S19.6,6.1,18.5,5c-1.2-1.2-2.7-1.8-4.3-1.8c0,0-0.1,0-0.1,0c-1,0-1.9,0.3-2.8,0.7c0,0,0,0,0,0
				c-0.5,0.3-0.9,0.6-1.4,1C9.5,5.3,9.3,5.7,9,6.1C7,5.5,4.7,6,3.1,7.6C2,8.8,1.3,10.3,1.3,11.9c0,1,0.2,2,0.7,2.8
				C2.1,15,2.4,15,2.6,14.9c0.2-0.1,0.3-0.3,0.2-0.5c-0.4-0.8-0.6-1.6-0.6-2.5c0-0.8,0.2-1.5,0.5-2.2c0.3,0.1,0.6,0.2,0.8,0.2
				c0.5,0,1-0.2,1.4-0.6C5.2,8.9,5.4,8.5,5.5,8c0-0.3,0-0.7-0.2-1c1.9-0.8,4.3-0.5,5.9,1.1c1,1,1.6,2.3,1.6,3.8
				c0,1.4-0.6,2.8-1.6,3.8c-1.1,1.1-2.6,1.6-4.1,1.6c0,0-0.1,0-0.1,0c-0.7-0.1-1.4-0.3-2-0.6c-0.2-0.1-0.4,0-0.5,0.2
				c-0.1,0.2,0,0.4,0.2,0.5c0.7,0.3,1.4,0.6,2.1,0.7c0.5,2.7,2.8,4.7,5.6,4.7c0.4,0,0.9-0.1,1.3-0.2c0.2,0,0.3-0.2,0.3-0.4
				c0-0.1,0-0.2,0-0.2c0-1,0.8-1.7,1.7-1.7c0.1,0,0.2,0,0.4,0c0.1,0,0.3,0,0.4-0.1c0.1-0.1,0.1-0.2,0.1-0.4c0-0.1,0-0.3,0-0.4
				C16.4,18.5,16.9,17.8,17.6,17.6L17.6,17.6z M4.3,8.8C4,9.1,3.4,9.2,3,9c0.2-0.3,0.4-0.6,0.7-0.9c0.3-0.3,0.6-0.6,1-0.8
				C4.8,7.9,4.7,8.4,4.3,8.8z M13.9,3.9c0.1,0.4-0.1,0.8-0.4,1c-0.4,0.4-1.1,0.3-1.5-0.1c-0.1-0.1-0.2-0.2-0.2-0.3
				C12.5,4.2,13.2,4,13.9,3.9z M11.7,7.6c-0.6-0.6-1.3-1-2-1.3c0.2-0.3,0.4-0.6,0.7-0.8c0.2-0.2,0.5-0.5,0.8-0.6
				c0.1,0.2,0.2,0.3,0.3,0.4c0.4,0.4,0.9,0.6,1.4,0.6c0.4,0,0.8-0.1,1.2-0.4c0.5-0.4,0.7-1,0.6-1.6c1.2,0.1,2.4,0.6,3.3,1.5
				c1,1,1.6,2.3,1.6,3.8S18.9,12,17.9,13c-0.3,0.3-0.6,0.6-1,0.8c-0.1-0.2-0.3-0.4-0.4-0.5c-0.8-0.9-1.9-1.6-3.1-1.8
				C13.4,10,12.7,8.7,11.7,7.6z M15.6,19.3C15.6,19.3,15.6,19.3,15.6,19.3C15.6,19.3,15.6,19.3,15.6,19.3c-1.4,0.1-2.5,1.2-2.5,2.5
				c-0.3,0-0.6,0.1-0.8,0.1c-2.3,0-4.3-1.6-4.8-3.9C7.7,18,8,18,8.3,18c1.3-0.2,2.5-0.8,3.4-1.7c1.1-1.1,1.7-2.5,1.8-4
				c1.3,0.3,2.3,1.1,3,2.2c0,0,0,0,0,0c0,0,0,0,0,0.1c0.4,0.7,0.6,1.5,0.6,2.4C16.2,17.3,15.6,18.2,15.6,19.3L15.6,19.3z"/>
			<path d="M13.6,15.1c-0.2,0.2-0.4,0.5-0.4,0.9c0,0.3,0.1,0.6,0.4,0.9c0.2,0.2,0.5,0.4,0.9,0.4s0.6-0.1,0.9-0.4
				c0.5-0.5,0.5-1.3,0-1.7C14.9,14.7,14.1,14.7,13.6,15.1L13.6,15.1z M14.8,16.3c-0.1,0.1-0.2,0.1-0.3,0.1c-0.1,0-0.2,0-0.3-0.1
				C14.1,16.2,14,16.1,14,16c0-0.1,0-0.2,0.1-0.3c0.1-0.1,0.2-0.1,0.3-0.1s0.2,0,0.3,0.1C15,15.8,15,16.1,14.8,16.3z"/>
			<path d="M14.1,8.2c0.2,0,0.4-0.2,0.4-0.4s-0.2-0.4-0.4-0.4h0c-0.2,0-0.4,0.2-0.4,0.4S13.9,8.2,14.1,8.2L14.1,8.2z"/>
			<path d="M10,18.7L10,18.7c-0.1,0.1-0.1,0.4,0,0.5c0.1,0.1,0.2,0.1,0.3,0.1c0.1,0,0.2,0,0.3-0.1c0.1-0.1,0.1-0.4,0-0.5
				C10.4,18.6,10.1,18.6,10,18.7z"/>
			<path d="M11.6,19.6L11.6,19.6c-0.1,0.1-0.1,0.4,0,0.5c0.1,0.1,0.2,0.1,0.3,0.1c0.1,0,0.2,0,0.3-0.1c0.1-0.1,0.1-0.4,0-0.5
				C12,19.4,11.8,19.4,11.6,19.6L11.6,19.6z"/>
			<path d="M3.7,15.7c-0.1-0.1-0.4-0.1-0.5,0c-0.1,0.1-0.1,0.4,0,0.5c0.1,0.1,0.2,0.1,0.3,0.1s0.2,0,0.3-0.1
				C3.8,16.1,3.8,15.8,3.7,15.7L3.7,15.7z"/>
		</g>
	</g>
	<text transform="matrix(1 0 0 1 23.7275 16.4718)"><tspan x="0" y="0" class="st2 st3 st4">pastry</tspan><tspan x="43.4" y="0" class="st5 st3 st4">Bite</tspan></text>
</g>
</svg>
